static_grf.mot
version=1
nRows=22
nColumns 19
inDegrees=yes
endheader
time	1_ground_force_vx	1_ground_force_vy	1_ground_force_vz	1_ground_force_px	1_ground_force_py	1_ground_force_pz	1_ground_torque_x	1_ground_torque_y	1_ground_torque_z	2_ground_force_vx	2_ground_force_vy	2_ground_force_vz	2_ground_force_px	2_ground_force_py	2_ground_force_pz	2_ground_torque_x	2_ground_torque_y	2_ground_torque_z
            0.495000	           -1.601173	          321.284452	          -10.587219	           -0.279827	            0.006325	           -0.431050	           -0.011250	            2.257431	           -0.074389	            1.333281	          320.015222	           13.342219	           -0.292457	            0.005312	           -0.665348	           -0.007283	           -1.747974	           -0.072877
            0.495500	           -1.325917	          320.202911	          -10.592540	           -0.279823	            0.006328	           -0.431757	           -0.009621	            2.323423	           -0.076860	            1.475304	          319.646276	           13.669342	           -0.292628	            0.005313	           -0.665687	           -0.008448	           -1.830463	           -0.078278
            0.496000	           -1.693071	          321.825459	          -10.630529	           -0.280226	            0.006325	           -0.431111	           -0.011973	            2.275835	           -0.075175	            1.237670	          320.566697	           13.531943	           -0.292352	            0.005316	           -0.666105	           -0.006719	           -1.740387	           -0.073466
            0.496500	           -1.325399	          321.103091	          -10.313539	           -0.279940	            0.006327	           -0.431516	           -0.009354	            2.266112	           -0.072785	            1.285205	          320.382558	           13.578194	           -0.292143	            0.005316	           -0.665952	           -0.007205	           -1.796094	           -0.076121
            0.497000	           -1.417555	          320.563229	          -10.544910	           -0.279611	            0.006327	           -0.431554	           -0.010142	            2.293590	           -0.075448	            1.290522	          318.909371	           13.572938	           -0.292598	            0.005312	           -0.665236	           -0.007183	           -1.775147	           -0.075551
            0.497500	           -1.554988	          321.283871	          -10.449765	           -0.279766	            0.006325	           -0.431206	           -0.010929	            2.258166	           -0.073447	            1.430324	          319.094689	           13.385823	           -0.292394	            0.005312	           -0.665158	           -0.007790	           -1.737933	           -0.072905
            0.498000	           -1.509064	          321.463980	          -10.403250	           -0.279617	            0.006325	           -0.430984	           -0.010622	            2.262692	           -0.073225	            1.198069	          318.541360	           13.383951	           -0.292856	            0.005310	           -0.664979	           -0.006447	           -1.713992	           -0.072016
            0.498500	           -1.783991	          320.742864	          -10.405659	           -0.280051	            0.006326	           -0.431326	           -0.012547	            2.255769	           -0.073182	            1.379508	          320.199197	           13.436713	           -0.292824	            0.005312	           -0.665682	           -0.007849	           -1.821886	           -0.076453
            0.499000	           -1.830028	          320.562952	          -10.498030	           -0.280085	            0.006327	           -0.431555	           -0.012750	            2.233455	           -0.073143	            1.144717	          320.381548	           13.719038	           -0.292142	            0.005315	           -0.665656	           -0.006366	           -1.781626	           -0.076291
            0.499500	           -1.600568	          319.841737	          -10.455835	           -0.279922	            0.006328	           -0.431885	           -0.011310	            2.260134	           -0.073885	            1.145238	          320.198518	           13.389884	           -0.292422	            0.005313	           -0.665559	           -0.006247	           -1.746701	           -0.073043
            0.500000	           -1.509373	          321.284273	          -10.541591	           -0.279638	            0.006325	           -0.431160	           -0.010703	            2.278288	           -0.074752	            1.428995	          319.462970	           13.387137	           -0.292555	            0.005311	           -0.665060	           -0.007995	           -1.787417	           -0.074902
            0.500500	           -1.555117	          320.743498	          -10.543796	           -0.279962	            0.006328	           -0.431808	           -0.010887	            2.245359	           -0.073812	            1.240287	          319.830408	           13.435458	           -0.292129	            0.005314	           -0.665486	           -0.007016	           -1.809106	           -0.075997
            0.501000	           -1.600717	          321.283666	          -10.403796	           -0.280126	            0.006326	           -0.431259	           -0.011175	            2.242877	           -0.072629	            1.614401	          320.016069	           13.389028	           -0.292389	            0.005313	           -0.665472	           -0.009160	           -1.815837	           -0.075972
            0.501500	           -1.646527	          321.103422	          -10.404455	           -0.279690	            0.006327	           -0.431535	           -0.011526	            2.247705	           -0.072831	            1.661957	          319.831763	           13.482207	           -0.292653	            0.005312	           -0.665318	           -0.009623	           -1.851954	           -0.078067
            0.502000	           -1.876147	          320.203002	          -10.637030	           -0.279965	            0.006329	           -0.432008	           -0.013063	            2.229517	           -0.074064	            1.427769	          319.830415	           13.623091	           -0.292655	            0.005311	           -0.665254	           -0.008130	           -1.821205	           -0.077574
            0.502500	           -1.371649	          321.464203	          -10.449447	           -0.279593	            0.006325	           -0.431163	           -0.009844	            2.306997	           -0.074991	            1.474454	          319.831923	           13.247646	           -0.292308	            0.005313	           -0.665314	           -0.008395	           -1.820970	           -0.075426
            0.503000	           -1.509583	          320.563801	          -10.682250	           -0.279620	            0.006328	           -0.431692	           -0.010841	            2.302137	           -0.076715	            1.470549	          320.936159	           13.439301	           -0.292338	            0.005316	           -0.666127	           -0.008171	           -1.783221	           -0.074673
            0.503500	           -1.693152	          321.645359	          -10.677158	           -0.279842	            0.006326	           -0.431276	           -0.012014	            2.282321	           -0.075763	            1.428392	          319.646609	           13.528578	           -0.292523	            0.005312	           -0.665273	           -0.007810	           -1.747696	           -0.073969
            0.504000	           -1.371550	          320.923376	          -10.451766	           -0.279904	            0.006326	           -0.431401	           -0.009913	            2.319606	           -0.075544	            1.333219	          320.015724	           13.201435	           -0.292341	            0.005314	           -0.665583	           -0.007317	           -1.756416	           -0.072456
            0.504500	           -1.555165	          320.383163	          -10.591198	           -0.279892	            0.006329	           -0.432014	           -0.011039	            2.274091	           -0.075177	            1.428290	          319.647446	           13.293937	           -0.292877	            0.005310	           -0.665156	           -0.007936	           -1.775972	           -0.073862
            0.505000	           -1.417328	          320.562835	          -10.453198	           -0.279550	            0.006326	           -0.431426	           -0.010283	            2.325793	           -0.075842	            1.566887	          320.200041	           13.389705	           -0.292471	            0.005314	           -0.665744	           -0.008941	           -1.827125	           -0.076404
            0.505500	           -1.600634	          320.202269	          -10.454289	           -0.279986	            0.006328	           -0.431861	           -0.011348	            2.270174	           -0.074119	            1.240849	          319.647104	           13.200161	           -0.292821	            0.005311	           -0.665329	           -0.006855	           -1.765974	           -0.072928
